<svg version="1.1" id="Layer_1" xmlns="http://www.w3.org/2000/svg" xmlns:xlink="http://www.w3.org/1999/xlink" x="0px" y="0px"
	 width="100%" viewBox="0 0 1024 1024" enable-background="new 0 0 1024 1024" xml:space="preserve">
<path fill="#FCFDFD" opacity="1.000000" stroke="none" 
	d="
M522.000000,0.999998 
	C689.620483,1.000000 857.240967,1.000000 1025.000000,1.000000 
	C1025.000000,336.694702 1025.000000,672.389404 1024.533203,1008.542358 
	C1019.044128,1009.056152 1014.021912,1009.111633 1008.537354,1009.098877 
	C1003.049744,1009.076111 998.024536,1009.121704 992.537109,1009.098206 
	C987.053223,1009.073792 982.031433,1009.118469 976.546143,1009.100586 
	C971.057678,1009.070374 966.032898,1009.102722 960.542419,1009.085571 
	C955.184875,1009.036133 950.292969,1009.036133 945.000000,1009.036133 
	C945.000000,1014.807495 945.000000,1019.903748 945.000000,1025.000000 
	C630.420837,1025.000000 315.841644,1025.000000 1.000000,1025.000000 
	C1.000000,840.972046 1.000000,656.943970 1.359148,472.530396 
	C31.646286,483.566071 61.574276,494.987213 91.543152,506.423950 
	C91.543152,511.050476 91.210594,514.566895 91.596603,518.002625 
	C94.293732,542.008667 99.036224,565.585388 105.682259,588.846008 
	C113.350983,615.685974 124.387039,641.077576 137.572159,665.538879 
	C148.054810,684.986572 159.068832,704.188293 173.529907,721.090454 
	C185.297440,734.844299 196.287491,749.427979 209.263779,761.941589 
	C225.797592,777.885864 244.014633,792.081055 261.449402,807.096008 
	C274.597290,818.419312 289.476288,827.158752 304.385925,835.805420 
	C322.505829,846.313660 341.272766,855.441833 360.906097,862.948181 
	C383.347260,871.528076 406.413483,877.419617 430.427551,882.012939 
	C429.848389,880.641663 429.488281,879.614075 428.997406,878.653381 
	C422.427032,865.794495 415.842102,852.943054 409.253235,840.093506 
	C402.193298,826.325378 395.240662,812.499878 387.973267,798.841980 
	C386.325684,795.745667 384.134338,792.151917 381.230042,790.650696 
	C370.181488,784.940125 358.707428,780.058533 347.449890,774.745361 
	C328.536713,765.819031 311.541107,753.755127 295.364410,740.780945 
	C269.196411,719.793457 246.278809,695.645447 227.059006,667.914185 
	C206.239746,637.875183 190.385391,605.574463 179.318069,570.830750 
	C171.244278,545.484619 167.364609,519.321594 166.000763,492.922424 
	C164.521912,464.296967 166.466110,435.796753 173.487122,407.779938 
	C178.515656,387.713959 184.788757,368.118805 193.391281,349.301117 
	C201.415268,331.748962 210.309097,314.617310 221.782150,299.073883 
	C233.307861,283.459106 244.747162,267.637634 257.777649,253.320450 
	C268.773651,241.238647 281.807617,230.963531 294.276978,220.282700 
	C310.877533,206.063278 329.224823,194.224823 348.541382,184.172348 
	C371.834351,172.050507 395.807098,161.189651 421.532166,155.150131 
	C438.087158,151.263474 454.856018,148.287643 472.472595,144.712067 
	C472.472595,175.699829 472.472595,205.089401 472.472595,234.347748 
	C494.197815,234.347748 515.254639,234.347748 536.439697,234.347748 
	C536.515259,233.140732 536.610413,232.325806 536.611084,231.510803 
	C536.661011,171.682770 536.786011,111.854500 536.612854,52.027088 
	C536.596375,46.331501 535.265015,40.470879 533.577576,34.984112 
	C530.061218,23.550632 525.897644,12.316207 522.000000,0.999998 
M189.242172,493.787506 
	C189.404144,499.985352 190.141479,500.735962 196.118469,500.810547 
	C228.396118,501.213379 260.673767,501.617493 293.160706,502.820496 
	C293.993164,508.399567 294.966949,513.961792 295.634918,519.560486 
	C299.695923,553.599548 310.922455,585.596680 323.818665,617.042236 
	C330.685944,633.787170 338.463440,650.167175 346.102539,666.585144 
	C355.359039,686.479248 364.735291,706.321716 374.371796,726.033997 
	C383.487335,744.680664 393.005249,763.130737 402.349091,781.665771 
	C412.500244,801.802246 422.654785,821.936951 433.060944,842.743958 
	C457.224335,892.292114 481.387695,941.840271 505.535858,991.357178 
	C505.454315,991.432617 505.931274,991.184082 506.111450,990.797241 
	C515.785889,970.021912 525.445618,949.239746 535.083557,928.447388 
	C540.938049,915.817383 546.812378,903.196045 552.565796,890.519958 
	C555.800720,883.392761 558.808044,876.162231 562.305725,868.404541 
	C570.256287,851.979675 578.297852,835.598022 586.131775,819.117798 
	C593.886475,802.804138 601.431824,786.390991 609.616699,769.608215 
	C611.980530,764.669617 614.369263,759.742676 616.703857,754.790222 
	C626.274658,734.487549 635.924927,714.221436 645.349609,693.850952 
	C650.220154,683.323853 654.679443,672.606506 659.745422,661.354370 
	C683.114197,609.601013 705.736877,557.612610 709.547729,499.789551 
	C712.217041,499.789551 713.870483,499.790100 715.523926,499.789490 
	C761.522217,499.772461 807.520630,499.785187 853.518799,499.700653 
	C859.318176,499.689972 865.293396,499.955750 870.875061,498.703003 
	C879.784729,496.703400 888.448303,493.587738 897.187683,490.853760 
	C923.713989,482.555420 950.212463,474.167419 976.753601,465.916840 
	C984.904236,463.383148 993.157349,461.179230 1001.363525,458.824280 
	C998.946350,457.317566 996.531860,456.850433 994.196533,456.127411 
	C979.899780,451.701141 965.654053,447.107422 951.328125,442.778625 
	C931.742859,436.860626 912.109802,431.100159 892.480408,425.329407 
	C881.200623,422.013336 870.245361,417.015045 857.094055,418.247650 
	C809.382385,418.341187 761.670654,418.448425 713.958923,418.490875 
	C711.361877,418.493195 708.764282,417.954498 706.080444,416.916656 
	C696.169617,383.344971 680.125244,353.035431 656.594849,327.087585 
	C647.638672,317.211273 637.426453,308.355286 627.102173,299.866852 
	C612.670105,288.001099 596.427795,278.953064 578.399658,271.713074 
	C574.675903,270.328888 570.986084,268.844055 567.222656,267.577667 
	C549.472961,261.604828 531.279175,258.473999 512.519592,257.477600 
	C482.103790,255.862061 452.837830,260.409393 424.758179,271.989960 
	C406.755585,279.414520 390.249329,289.429382 374.970856,301.678528 
	C358.902954,314.560577 344.843842,329.221252 332.915466,345.888977 
	C317.591217,367.301849 306.554810,390.868713 299.355927,416.189789 
	C298.260468,420.042969 296.469055,421.332214 292.381104,421.301910 
	C270.910339,421.142944 249.437027,421.332336 227.119965,421.237122 
	C216.009750,421.237122 204.899536,421.237122 193.413986,421.237122 
	C188.585907,444.758850 186.138138,468.706726 189.242172,493.787506 
M820.316284,374.093475 
	C821.553101,379.593750 826.339233,380.864929 830.644104,382.403778 
	C847.559631,388.450317 864.520081,394.373413 881.507324,400.215973 
	C888.841431,402.738434 896.281311,404.953247 905.196777,407.793182 
	C886.075500,313.108521 838.945251,236.092682 768.264465,173.359222 
	C708.517395,120.330070 639.931152,84.708916 559.496948,74.226135 
	C559.496948,99.369316 559.496948,123.998451 559.496948,148.768982 
	C560.616821,149.092087 561.544373,149.426117 562.499939,149.625839 
	C600.789795,157.627991 636.497864,172.400299 670.138184,192.001007 
	C692.998657,205.320816 713.896606,221.406052 733.050659,239.861450 
	C752.522949,258.623444 769.621826,279.205505 784.480713,301.705353 
	C799.284119,324.121277 811.719971,347.745361 820.316284,374.093475 
M593.284912,851.780396 
	C588.926025,860.955505 584.567139,870.130615 580.006836,879.729736 
	C581.335571,879.655640 581.989624,879.674316 582.625427,879.575806 
	C608.767334,875.522949 633.741821,867.408997 657.998047,857.145508 
	C683.660645,846.286865 706.908264,831.207092 729.847290,815.483093 
	C754.645691,798.484619 777.097656,778.842773 797.767639,757.219604 
	C822.270508,731.587036 843.154480,703.177979 860.394470,672.068726 
	C874.958923,645.787598 887.370483,618.605713 895.266846,589.629150 
	C899.801636,572.988159 902.820496,555.908875 905.958740,538.922852 
	C907.627686,529.889160 908.096802,520.633850 909.178101,510.839172 
	C898.857056,514.195679 889.384033,517.278870 879.909424,520.357239 
	C867.269043,524.464172 854.703918,528.828308 841.955566,532.567383 
	C835.083862,534.582886 830.173828,537.423645 831.140991,545.593079 
	C831.195557,546.054016 830.929932,546.564209 830.771057,547.037292 
	C824.268616,566.394592 818.315674,585.959167 811.120850,605.055786 
	C801.106262,631.636719 786.314575,655.740723 769.512268,678.504456 
	C752.296143,701.828979 732.450317,722.842896 709.474854,740.598389 
	C697.021667,750.222290 684.187012,759.533875 670.676636,767.559143 
	C656.004883,776.274292 640.320740,783.278748 625.159790,791.185730 
	C623.383667,792.112061 621.583435,793.763855 620.710815,795.531738 
	C611.588257,814.012207 602.652954,832.585144 593.284912,851.780396 
z"/>
<path fill="#FCFDFD" opacity="1.000000" stroke="none" 
	d="
M1.000001,451.000000 
	C1.000000,301.068909 1.000000,151.137787 1.000000,1.000000 
	C161.357346,1.000000 321.714783,1.000000 482.677490,1.363183 
	C482.105438,4.652980 480.818512,7.540859 479.768829,10.512535 
	C473.235138,29.009802 466.684204,47.501667 460.313690,66.055313 
	C458.981689,69.934647 456.978943,71.736572 452.680878,72.292122 
	C413.023529,77.418053 374.637878,87.773651 338.492828,104.692680 
	C316.616577,114.932693 295.484314,127.227058 275.348206,140.601471 
	C250.463242,157.130081 227.967987,176.963196 207.027878,198.340485 
	C184.637238,221.198593 164.994690,246.329056 148.263596,273.600708 
	C135.031311,295.169281 124.012726,317.887238 114.995232,341.581055 
	C105.797302,365.748871 99.041763,390.590271 93.904381,415.880768 
	C93.076767,419.955048 91.080345,421.715088 87.496559,422.906952 
	C64.927376,430.412720 42.414650,438.088501 19.837305,445.569366 
	C13.638923,447.623199 7.283410,449.202789 1.000001,451.000000 
z"/>
<path fill="#363637" opacity="1.000000" stroke="none" 
	d="
M1.000001,451.468536 
	C7.283410,449.202789 13.638923,447.623199 19.837305,445.569366 
	C42.414650,438.088501 64.927376,430.412720 87.496559,422.906952 
	C91.080345,421.715088 93.076767,419.955048 93.904381,415.880768 
	C99.041763,390.590271 105.797302,365.748871 114.995232,341.581055 
	C124.012726,317.887238 135.031311,295.169281 148.263596,273.600708 
	C164.994690,246.329056 184.637238,221.198593 207.027878,198.340485 
	C227.967987,176.963196 250.463242,157.130081 275.348206,140.601471 
	C295.484314,127.227058 316.616577,114.932693 338.492828,104.692680 
	C374.637878,87.773651 413.023529,77.418053 452.680878,72.292122 
	C456.978943,71.736572 458.981689,69.934647 460.313690,66.055313 
	C466.684204,47.501667 473.235138,29.009802 479.768829,10.512535 
	C480.818512,7.540859 482.105438,4.652980 483.141357,1.363183 
	C495.687561,1.000000 508.375122,1.000000 521.531372,0.999998 
	C525.897644,12.316207 530.061218,23.550632 533.577576,34.984112 
	C535.265015,40.470879 536.596375,46.331501 536.612854,52.027088 
	C536.786011,111.854500 536.661011,171.682770 536.611084,231.510803 
	C536.610413,232.325806 536.515259,233.140732 536.439697,234.347748 
	C515.254639,234.347748 494.197815,234.347748 472.472595,234.347748 
	C472.472595,205.089401 472.472595,175.699829 472.472595,144.712067 
	C454.856018,148.287643 438.087158,151.263474 421.532166,155.150131 
	C395.807098,161.189651 371.834351,172.050507 348.541382,184.172348 
	C329.224823,194.224823 310.877533,206.063278 294.276978,220.282700 
	C281.807617,230.963531 268.773651,241.238647 257.777649,253.320450 
	C244.747162,267.637634 233.307861,283.459106 221.782150,299.073883 
	C210.309097,314.617310 201.415268,331.748962 193.391281,349.301117 
	C184.788757,368.118805 178.515656,387.713959 173.487122,407.779938 
	C166.466110,435.796753 164.521912,464.296967 166.000763,492.922424 
	C167.364609,519.321594 171.244278,545.484619 179.318069,570.830750 
	C190.385391,605.574463 206.239746,637.875183 227.059006,667.914185 
	C246.278809,695.645447 269.196411,719.793457 295.364410,740.780945 
	C311.541107,753.755127 328.536713,765.819031 347.449890,774.745361 
	C358.707428,780.058533 370.181488,784.940125 381.230042,790.650696 
	C384.134338,792.151917 386.325684,795.745667 387.973267,798.841980 
	C395.240662,812.499878 402.193298,826.325378 409.253235,840.093506 
	C415.842102,852.943054 422.427032,865.794495 428.997406,878.653381 
	C429.488281,879.614075 429.848389,880.641663 430.427551,882.012939 
	C406.413483,877.419617 383.347260,871.528076 360.906097,862.948181 
	C341.272766,855.441833 322.505829,846.313660 304.385925,835.805420 
	C289.476288,827.158752 274.597290,818.419312 261.449402,807.096008 
	C244.014633,792.081055 225.797592,777.885864 209.263779,761.941589 
	C196.287491,749.427979 185.297440,734.844299 173.529907,721.090454 
	C159.068832,704.188293 148.054810,684.986572 137.572159,665.538879 
	C124.387039,641.077576 113.350983,615.685974 105.682259,588.846008 
	C99.036224,565.585388 94.293732,542.008667 91.596603,518.002625 
	C91.210594,514.566895 91.543152,511.050476 91.543152,506.423950 
	C61.574276,494.987213 31.646286,483.566071 1.359148,472.072449 
	C1.000000,465.312347 1.000000,458.624725 1.000001,451.468536 
z"/>
<path fill="#FFFF66" opacity="1.000000" stroke="none" 
	d="
M945.466858,1025.000000 
	C945.000000,1019.903748 945.000000,1014.807495 945.000000,1009.036133 
	C950.292969,1009.036133 955.184875,1009.036133 960.539307,1009.539978 
	C961.001160,1015.029236 961.000549,1020.014587 961.000000,1025.000000 
	C955.977905,1025.000000 950.955811,1025.000000 945.466858,1025.000000 
z"/>
<path fill="#42FFFF" opacity="1.000000" stroke="none" 
	d="
M961.466858,1025.000000 
	C961.000549,1020.014587 961.001160,1015.029236 961.004883,1009.589478 
	C966.032898,1009.102722 971.057678,1009.070374 976.543091,1009.555420 
	C977.002502,1015.048584 977.001282,1020.024292 977.000000,1025.000000 
	C971.977905,1025.000000 966.955811,1025.000000 961.466858,1025.000000 
z"/>
<path fill="#51DA4C" opacity="1.000000" stroke="none" 
	d="
M977.466858,1025.000000 
	C977.001282,1020.024292 977.002502,1015.048584 977.006714,1009.617981 
	C982.031433,1009.118469 987.053223,1009.073792 992.537231,1009.553467 
	C992.999695,1015.051880 992.999817,1020.025940 993.000000,1025.000000 
	C987.977905,1025.000000 982.955811,1025.000000 977.466858,1025.000000 
z"/>
<path fill="#FF6E3C" opacity="1.000000" stroke="none" 
	d="
M993.466858,1025.000000 
	C992.999817,1020.025940 992.999695,1015.051880 992.999390,1009.622559 
	C998.024536,1009.121704 1003.049744,1009.076111 1008.537598,1009.553955 
	C1009.000061,1015.051514 1009.000000,1020.025757 1009.000000,1025.000000 
	C1003.977905,1025.000000 998.955811,1025.000000 993.466858,1025.000000 
z"/>
<path fill="#3C46FF" opacity="1.000000" stroke="none" 
	d="
M1009.471191,1025.000000 
	C1009.000000,1020.025757 1009.000061,1015.051514 1008.999939,1009.622192 
	C1014.021912,1009.111633 1019.044128,1009.056152 1024.533203,1009.000366 
	C1025.000000,1014.258423 1025.000000,1019.516846 1025.000000,1025.000000 
	C1019.982300,1025.000000 1014.962341,1025.000000 1009.471191,1025.000000 
z"/>
<path fill="#363637" opacity="1.000000" stroke="none" 
	d="
M820.254395,373.712402 
	C811.719971,347.745361 799.284119,324.121277 784.480713,301.705353 
	C769.621826,279.205505 752.522949,258.623444 733.050659,239.861450 
	C713.896606,221.406052 692.998657,205.320816 670.138184,192.001007 
	C636.497864,172.400299 600.789795,157.627991 562.499939,149.625839 
	C561.544373,149.426117 560.616821,149.092087 559.496948,148.768982 
	C559.496948,123.998451 559.496948,99.369316 559.496948,74.226135 
	C639.931152,84.708916 708.517395,120.330070 768.264465,173.359222 
	C838.945251,236.092682 886.075500,313.108521 905.196777,407.793182 
	C896.281311,404.953247 888.841431,402.738434 881.507324,400.215973 
	C864.520081,394.373413 847.559631,388.450317 830.644104,382.403778 
	C826.339233,380.864929 821.553101,379.593750 820.254395,373.712402 
z"/>
<path fill="#363637" opacity="1.000000" stroke="none" 
	d="
M593.475342,851.456421 
	C602.652954,832.585144 611.588257,814.012207 620.710815,795.531738 
	C621.583435,793.763855 623.383667,792.112061 625.159790,791.185730 
	C640.320740,783.278748 656.004883,776.274292 670.676636,767.559143 
	C684.187012,759.533875 697.021667,750.222290 709.474854,740.598389 
	C732.450317,722.842896 752.296143,701.828979 769.512268,678.504456 
	C786.314575,655.740723 801.106262,631.636719 811.120850,605.055786 
	C818.315674,585.959167 824.268616,566.394592 830.771057,547.037292 
	C830.929932,546.564209 831.195557,546.054016 831.140991,545.593079 
	C830.173828,537.423645 835.083862,534.582886 841.955566,532.567383 
	C854.703918,528.828308 867.269043,524.464172 879.909424,520.357239 
	C889.384033,517.278870 898.857056,514.195679 909.178101,510.839172 
	C908.096802,520.633850 907.627686,529.889160 905.958740,538.922852 
	C902.820496,555.908875 899.801636,572.988159 895.266846,589.629150 
	C887.370483,618.605713 874.958923,645.787598 860.394470,672.068726 
	C843.154480,703.177979 822.270508,731.587036 797.767639,757.219604 
	C777.097656,778.842773 754.645691,798.484619 729.847290,815.483093 
	C706.908264,831.207092 683.660645,846.286865 657.998047,857.145508 
	C633.741821,867.408997 608.767334,875.522949 582.625427,879.575806 
	C581.989624,879.674316 581.335571,879.655640 580.006836,879.729736 
	C584.567139,870.130615 588.926025,860.955505 593.475342,851.456421 
z"/>
<path fill="#E73F24" opacity="1.000000" stroke="none" 
	d="
M858.013184,418.448883 
	C870.245361,417.015045 881.200623,422.013336 892.480408,425.329407 
	C912.109802,431.100159 931.742859,436.860626 951.328125,442.778625 
	C965.654053,447.107422 979.899780,451.701141 994.196533,456.127411 
	C996.531860,456.850433 998.946350,457.317566 1001.363525,458.824280 
	C993.157349,461.179230 984.904236,463.383148 976.753601,465.916840 
	C950.212463,474.167419 923.713989,482.555420 897.187683,490.853760 
	C888.448303,493.587738 879.784729,496.703400 870.875061,498.703003 
	C865.293396,499.955750 859.318176,499.689972 853.518799,499.700653 
	C807.520630,499.785187 761.522217,499.772461 715.523926,499.789490 
	C713.870483,499.790100 712.217041,499.789551 709.547729,499.789551 
	C705.736877,557.612610 683.114197,609.601013 659.240417,661.672363 
	C658.145813,661.985107 657.556152,661.979858 656.979492,661.585815 
	C658.342285,657.102112 659.448792,652.906921 661.087952,648.931274 
	C665.867004,637.340149 671.251953,625.984863 675.668457,614.261719 
	C681.251953,599.440857 686.246887,584.392273 691.239990,569.357056 
	C694.354370,559.979065 697.532349,550.566040 699.718262,540.949707 
	C702.609497,528.231079 704.941040,515.350708 706.714050,502.430176 
	C707.377808,497.593445 709.229248,496.930176 713.350952,496.898285 
	C728.645325,496.780151 743.937500,496.352417 759.229919,496.013275 
	C773.522644,495.696350 787.812988,495.165619 802.107056,495.050079 
	C822.770996,494.883057 843.437195,495.019806 864.102417,494.981781 
	C866.079285,494.978149 868.150330,494.977783 870.016663,494.428680 
	C881.894653,490.934082 893.720215,487.261993 905.576538,483.693115 
	C928.861023,476.684235 952.165466,469.741150 975.420654,462.636597 
	C977.097656,462.124298 978.441956,460.523132 979.940979,459.428253 
	C978.620056,457.947144 977.564026,455.666199 975.931641,455.125397 
	C969.365051,452.949982 962.602783,451.373352 955.944702,449.464355 
	C940.598389,445.064240 925.246948,440.679169 909.944519,436.130127 
	C901.069641,433.491882 892.168518,430.864075 883.494690,427.649994 
	C875.208496,424.579559 867.150085,420.982910 858.002502,421.631775 
	C858.005066,420.334961 858.009094,419.391937 858.013184,418.448883 
z"/>
<path fill="#DD3E27" opacity="1.000000" stroke="none" 
	d="
M227.964600,421.400665 
	C249.437027,421.332336 270.910339,421.142944 292.381104,421.301910 
	C296.469055,421.332214 298.260468,420.042969 299.355927,416.189789 
	C306.554810,390.868713 317.591217,367.301849 332.915466,345.888977 
	C344.843842,329.221252 358.902954,314.560577 374.970856,301.678528 
	C390.249329,289.429382 406.755585,279.414520 424.758179,271.989960 
	C452.837830,260.409393 482.103790,255.862061 512.519592,257.477600 
	C531.279175,258.473999 549.472961,261.604828 567.222656,267.577667 
	C570.986084,268.844055 574.675903,270.328888 578.706543,272.270447 
	C580.338196,274.883148 581.663025,276.938477 582.607178,278.990601 
	C581.427673,278.787872 580.588562,278.685852 579.836121,278.374329 
	C567.431213,273.238586 554.822388,268.861694 541.454041,266.866974 
	C529.864502,265.137604 518.386597,262.245056 506.747742,261.394653 
	C497.674622,260.731750 488.391815,262.094421 479.275604,263.175842 
	C473.617554,263.846985 468.079285,265.604584 462.517761,266.996307 
	C451.941620,269.642975 441.217712,271.861084 430.884033,275.257568 
	C424.099426,277.487549 417.855347,281.401398 411.434967,284.689484 
	C404.454834,288.264252 397.213287,291.472504 390.682739,295.751678 
	C376.365143,305.133362 365.010925,317.831665 353.724030,330.519775 
	C348.546600,336.340027 343.368683,342.166138 338.385712,348.151703 
	C329.454773,358.879547 321.344543,370.181427 316.096161,383.235077 
	C311.899109,393.673950 308.220123,404.325562 303.852905,414.689667 
	C301.546448,420.163269 299.561005,426.474731 291.050385,425.166656 
	C286.412994,424.453827 281.575928,424.888458 276.835724,425.031067 
	C269.546906,425.250366 262.266724,425.830719 254.977753,425.953644 
	C245.321899,426.116425 235.661102,425.986053 226.064362,425.623444 
	C226.739044,423.977020 227.351822,422.688843 227.964600,421.400665 
z"/>
<path fill="#E23A21" opacity="1.000000" stroke="none" 
	d="
M432.807861,842.072449 
	C422.654785,821.936951 412.500244,801.802246 402.349091,781.665771 
	C393.005249,763.130737 383.487335,744.680664 374.371796,726.033997 
	C364.735291,706.321716 355.359039,686.479248 346.102539,666.585144 
	C338.463440,650.167175 330.685944,633.787170 323.818665,617.042236 
	C310.922455,585.596680 299.695923,553.599548 295.634918,519.560486 
	C294.966949,513.961792 293.993164,508.399567 293.434998,502.415649 
	C294.467438,502.003693 295.225555,501.996582 296.034912,502.358246 
	C297.054352,504.931366 298.387268,507.052032 298.915771,509.357178 
	C300.056366,514.331665 300.572571,519.449768 301.721558,524.421875 
	C304.725037,537.418884 307.719086,550.425049 311.120972,563.320923 
	C314.065918,574.484741 316.719513,585.840942 320.993439,596.514954 
	C330.285339,619.721069 340.214722,642.687866 350.494019,665.477112 
	C357.360870,680.700989 365.312927,695.433777 372.718964,710.416199 
	C384.839172,734.935364 396.836121,759.515686 409.030243,783.997925 
	C416.187469,798.367554 423.734283,812.543274 430.876282,826.920288 
	C433.283386,831.765808 434.983490,836.962524 436.586792,842.000488 
	C435.047180,842.025635 433.927521,842.049072 432.807861,842.072449 
z"/>
<path fill="#EA3D23" opacity="1.000000" stroke="none" 
	d="
M432.934387,842.408203 
	C433.927521,842.049072 435.047180,842.025635 436.852539,842.221680 
	C437.977478,843.512390 438.339417,844.623352 438.867523,845.648865 
	C448.146301,863.666199 457.743591,881.526978 466.661835,899.720642 
	C476.986053,920.782532 486.680084,942.152771 496.729950,963.350159 
	C499.411011,969.005127 502.393097,974.517456 505.760559,981.122192 
	C507.171539,978.495117 507.764893,977.502197 508.255219,976.460693 
	C518.967041,953.710083 529.646851,930.944336 540.386230,908.206726 
	C542.712097,903.282288 545.433533,898.539062 547.637573,893.563965 
	C551.237000,885.439209 554.561035,877.192383 558.393005,868.998535 
	C559.829163,868.992676 560.873535,868.985474 561.917969,868.978271 
	C558.808044,876.162231 555.800720,883.392761 552.565796,890.519958 
	C546.812378,903.196045 540.938049,915.817383 535.083557,928.447388 
	C525.445618,949.239746 515.785889,970.021912 506.111450,990.797241 
	C505.931274,991.184082 505.454315,991.432617 505.535858,991.357178 
	C481.387695,941.840271 457.224335,892.292114 432.934387,842.408203 
z"/>
<path fill="#D34029" opacity="1.000000" stroke="none" 
	d="
M857.553589,418.348267 
	C858.009094,419.391937 858.005066,420.334961 857.567932,421.637512 
	C850.570679,422.657623 844.019226,423.578125 837.438538,423.899811 
	C831.789307,424.175964 826.106689,423.682037 820.438843,423.683380 
	C813.190613,423.685120 805.942566,423.873505 798.694092,423.921753 
	C793.349365,423.957336 787.990112,423.645050 782.661865,423.935822 
	C773.425903,424.439850 764.218567,425.541046 754.980103,425.899292 
	C749.721252,426.103210 744.425476,425.089661 739.144714,425.071136 
	C734.531555,425.055023 729.803284,426.451752 725.328491,425.810486 
	C718.800171,424.874939 712.453308,422.673157 706.024292,420.592346 
	C706.068604,419.338257 706.117737,418.502930 706.166931,417.667633 
	C708.764282,417.954498 711.361877,418.493195 713.958923,418.490875 
	C761.670654,418.448425 809.382385,418.341187 857.553589,418.348267 
z"/>
<path fill="#E43921" opacity="1.000000" stroke="none" 
	d="
M706.123657,417.292145 
	C706.117737,418.502930 706.068604,419.338257 705.663940,420.551819 
	C703.947815,419.363251 702.030212,418.011047 701.328674,416.190308 
	C699.020081,410.198700 697.501709,403.891815 695.038086,397.973145 
	C690.666748,387.471405 686.800781,376.575470 680.958435,366.911499 
	C671.360840,351.035950 659.933472,336.391174 647.007446,322.909729 
	C636.325745,311.768951 624.482361,302.201996 611.358154,294.282410 
	C602.171326,288.738800 592.463135,284.059265 582.987793,278.993805 
	C581.663025,276.938477 580.338196,274.883148 579.009277,272.467377 
	C596.427795,278.953064 612.670105,288.001099 627.102173,299.866852 
	C637.426453,308.355286 647.638672,317.211273 656.594849,327.087585 
	C680.125244,353.035431 696.169617,383.344971 706.123657,417.292145 
z"/>
<path fill="#DF3C25" opacity="1.000000" stroke="none" 
	d="
M562.111816,868.691406 
	C560.873535,868.985474 559.829163,868.992676 558.429504,868.638306 
	C560.863220,861.246765 563.316101,854.059753 566.513916,847.221191 
	C572.436035,834.556335 578.736694,822.066711 584.986938,809.557617 
	C590.815918,797.891541 596.731445,786.267761 602.739929,774.693298 
	C603.818420,772.615601 605.533203,770.868225 607.138000,769.219849 
	C607.904236,769.654724 608.486633,769.838074 609.068970,770.021484 
	C601.431824,786.390991 593.886475,802.804138 586.131775,819.117798 
	C578.297852,835.598022 570.256287,851.979675 562.111816,868.691406 
z"/>
<path fill="#F13D22" opacity="1.000000" stroke="none" 
	d="
M295.983704,501.989441 
	C295.225555,501.996582 294.467438,502.003693 293.330353,502.015991 
	C260.673767,501.617493 228.396118,501.213379 196.118469,500.810547 
	C190.141479,500.735962 189.404144,499.985352 189.652802,493.451202 
	C191.374878,493.745117 192.686340,494.375336 194.294922,495.298584 
	C202.689743,496.054565 210.782394,496.772675 218.886063,496.932648 
	C242.988708,497.408417 267.095398,497.687225 291.201324,497.976990 
	C294.052795,498.011261 296.257355,498.418762 295.983704,501.989441 
z"/>
<path fill="#F13F25" opacity="1.000000" stroke="none" 
	d="
M609.342896,769.814819 
	C608.486633,769.838074 607.904236,769.654724 607.150574,768.823181 
	C607.646973,765.796143 607.996704,763.267700 609.033630,761.062500 
	C616.158691,745.909119 623.383606,730.802063 630.662903,715.721863 
	C637.555969,701.441833 644.549011,687.210022 651.510315,672.962952 
	C653.305542,669.288696 655.146545,665.636780 656.966553,661.974609 
	C657.556152,661.979858 658.145813,661.985107 659.030029,661.982666 
	C654.679443,672.606506 650.220154,683.323853 645.349609,693.850952 
	C635.924927,714.221436 626.274658,734.487549 616.703857,754.790222 
	C614.369263,759.742676 611.980530,764.669617 609.342896,769.814819 
z"/>
<path fill="#E43921" opacity="1.000000" stroke="none" 
	d="
M193.997803,495.005554 
	C192.686340,494.375336 191.374878,493.745117 189.753326,493.058319 
	C186.138138,468.706726 188.585907,444.758850 193.413986,421.237122 
	C204.899536,421.237122 216.009750,421.237122 227.542282,421.318909 
	C227.351822,422.688843 226.739044,423.977020 225.635376,425.627014 
	C216.878677,425.663147 208.611099,425.375336 200.347900,424.992950 
	C197.097229,424.842529 195.899719,426.319427 195.964508,429.469849 
	C196.022141,432.271393 195.776855,435.088165 195.524475,437.885498 
	C194.383667,450.530762 192.794220,463.152496 192.187973,475.821991 
	C191.884064,482.173096 193.338562,488.608368 193.997803,495.005554 
z"/>
<path fill="#C63D25" opacity="1.000000" stroke="none" 
	d="
M194.294922,495.298584 
	C193.338562,488.608368 191.884064,482.173096 192.187973,475.821991 
	C192.794220,463.152496 194.383667,450.530762 195.524475,437.885498 
	C195.776855,435.088165 196.022141,432.271393 195.964508,429.469849 
	C195.899719,426.319427 197.097229,424.842529 200.347900,424.992950 
	C208.611099,425.375336 216.878677,425.663147 225.573471,425.985260 
	C235.661102,425.986053 245.321899,426.116425 254.977753,425.953644 
	C262.266724,425.830719 269.546906,425.250366 276.835724,425.031067 
	C281.575928,424.888458 286.412994,424.453827 291.050385,425.166656 
	C299.561005,426.474731 301.546448,420.163269 303.852905,414.689667 
	C308.220123,404.325562 311.899109,393.673950 316.096161,383.235077 
	C321.344543,370.181427 329.454773,358.879547 338.385712,348.151703 
	C343.368683,342.166138 348.546600,336.340027 353.724030,330.519775 
	C365.010925,317.831665 376.365143,305.133362 390.682739,295.751678 
	C397.213287,291.472504 404.454834,288.264252 411.434967,284.689484 
	C417.855347,281.401398 424.099426,277.487549 430.884033,275.257568 
	C441.217712,271.861084 451.941620,269.642975 462.517761,266.996307 
	C468.079285,265.604584 473.617554,263.846985 479.275604,263.175842 
	C488.391815,262.094421 497.674622,260.731750 506.747742,261.394653 
	C518.386597,262.245056 529.864502,265.137604 541.454041,266.866974 
	C554.822388,268.861694 567.431213,273.238586 579.836121,278.374329 
	C580.588562,278.685852 581.427673,278.787872 582.607178,278.990601 
	C592.463135,284.059265 602.171326,288.738800 611.358154,294.282410 
	C624.482361,302.201996 636.325745,311.768951 647.007446,322.909729 
	C659.933472,336.391174 671.360840,351.035950 680.958435,366.911499 
	C686.800781,376.575470 690.666748,387.471405 695.038086,397.973145 
	C697.501709,403.891815 699.020081,410.198700 701.328674,416.190308 
	C702.030212,418.011047 703.947815,419.363251 705.668701,420.970612 
	C712.453308,422.673157 718.800171,424.874939 725.328491,425.810486 
	C729.803284,426.451752 734.531555,425.055023 739.144714,425.071136 
	C744.425476,425.089661 749.721252,426.103210 754.980103,425.899292 
	C764.218567,425.541046 773.425903,424.439850 782.661865,423.935822 
	C787.990112,423.645050 793.349365,423.957336 798.694092,423.921753 
	C805.942566,423.873505 813.190613,423.685120 820.438843,423.683380 
	C826.106689,423.682037 831.789307,424.175964 837.438538,423.899811 
	C844.019226,423.578125 850.570679,422.657623 857.569397,421.991241 
	C867.150085,420.982910 875.208496,424.579559 883.494690,427.649994 
	C892.168518,430.864075 901.069641,433.491882 909.944519,436.130127 
	C925.246948,440.679169 940.598389,445.064240 955.944702,449.464355 
	C962.602783,451.373352 969.365051,452.949982 975.931641,455.125397 
	C977.564026,455.666199 978.620056,457.947144 979.940979,459.428253 
	C978.441956,460.523132 977.097656,462.124298 975.420654,462.636597 
	C952.165466,469.741150 928.861023,476.684235 905.576538,483.693115 
	C893.720215,487.261993 881.894653,490.934082 870.016663,494.428680 
	C868.150330,494.977783 866.079285,494.978149 864.102417,494.981781 
	C843.437195,495.019806 822.770996,494.883057 802.107056,495.050079 
	C787.812988,495.165619 773.522644,495.696350 759.229919,496.013275 
	C743.937500,496.352417 728.645325,496.780151 713.350952,496.898285 
	C709.229248,496.930176 707.377808,497.593445 706.714050,502.430176 
	C704.941040,515.350708 702.609497,528.231079 699.718262,540.949707 
	C697.532349,550.566040 694.354370,559.979065 691.239990,569.357056 
	C686.246887,584.392273 681.251953,599.440857 675.668457,614.261719 
	C671.251953,625.984863 665.867004,637.340149 661.087952,648.931274 
	C659.448792,652.906921 658.342285,657.102112 656.979492,661.585815 
	C655.146545,665.636780 653.305542,669.288696 651.510315,672.962952 
	C644.549011,687.210022 637.555969,701.441833 630.662903,715.721863 
	C623.383606,730.802063 616.158691,745.909119 609.033630,761.062500 
	C607.996704,763.267700 607.646973,765.796143 606.966736,768.571655 
	C605.533203,770.868225 603.818420,772.615601 602.739929,774.693298 
	C596.731445,786.267761 590.815918,797.891541 584.986938,809.557617 
	C578.736694,822.066711 572.436035,834.556335 566.513916,847.221191 
	C563.316101,854.059753 560.863220,861.246765 558.037781,868.636841 
	C554.561035,877.192383 551.237000,885.439209 547.637573,893.563965 
	C545.433533,898.539062 542.712097,903.282288 540.386230,908.206726 
	C529.646851,930.944336 518.967041,953.710083 508.255219,976.460693 
	C507.764893,977.502197 507.171539,978.495117 505.760559,981.122192 
	C502.393097,974.517456 499.411011,969.005127 496.729950,963.350159 
	C486.680084,942.152771 476.986053,920.782532 466.661835,899.720642 
	C457.743591,881.526978 448.146301,863.666199 438.867523,845.648865 
	C438.339417,844.623352 437.977478,843.512390 437.272461,842.219971 
	C434.983490,836.962524 433.283386,831.765808 430.876282,826.920288 
	C423.734283,812.543274 416.187469,798.367554 409.030243,783.997925 
	C396.836121,759.515686 384.839172,734.935364 372.718964,710.416199 
	C365.312927,695.433777 357.360870,680.700989 350.494019,665.477112 
	C340.214722,642.687866 330.285339,619.721069 320.993439,596.514954 
	C316.719513,585.840942 314.065918,574.484741 311.120972,563.320923 
	C307.719086,550.425049 304.725037,537.418884 301.721558,524.421875 
	C300.572571,519.449768 300.056366,514.331665 298.915771,509.357178 
	C298.387268,507.052032 297.054352,504.931366 296.034912,502.358276 
	C296.257355,498.418762 294.052795,498.011261 291.201324,497.976990 
	C267.095398,497.687225 242.988708,497.408417 218.886063,496.932648 
	C210.782394,496.772675 202.689743,496.054565 194.294922,495.298584 
M535.908875,580.009155 
	C541.116943,579.256226 546.657227,579.391785 551.473328,577.590759 
	C568.781433,571.118164 583.686523,560.973389 595.780579,546.790649 
	C606.030334,534.770752 615.517578,522.155212 621.066528,507.334900 
	C624.721130,497.573975 626.553162,487.107086 628.796326,476.867645 
	C629.118958,475.395142 627.163330,473.423584 626.235840,470.785126 
	C626.144958,460.526550 626.054016,450.268005 626.755920,439.827637 
	C627.169250,438.665619 628.074768,437.429840 627.913574,436.353882 
	C627.062988,430.677155 625.986511,425.032562 624.909790,419.391785 
	C620.984680,398.828583 610.303711,381.915497 595.757324,367.429504 
	C583.379578,355.103149 568.725769,346.010223 552.680115,338.934235 
	C539.600830,333.166351 525.930603,329.671936 511.908844,329.293304 
	C498.924286,328.942688 485.829865,330.647736 472.865082,332.149139 
	C459.973938,333.642029 448.283783,339.136230 437.441345,345.901825 
	C418.250214,357.876984 401.208038,372.152069 391.333862,393.340576 
	C387.519714,401.525116 381.953430,409.147583 379.569305,417.691315 
	C374.561737,435.636475 372.841827,454.213165 374.105194,472.884155 
	C374.514923,478.939484 375.670074,485.024170 377.223145,490.900146 
	C378.813385,496.916565 381.041687,502.806274 383.460907,508.553528 
	C389.721344,523.425964 399.250641,536.234558 410.897339,547.121338 
	C423.928619,559.302246 437.306824,571.028687 455.195740,576.551208 
	C464.075531,579.292542 472.789490,581.975525 482.392914,583.686523 
	C487.857269,584.457214 493.381866,586.156860 498.773621,585.807434 
	C510.425598,585.052246 522.012207,583.268066 533.612183,581.799438 
	C534.140320,581.732605 534.537964,580.634766 535.908875,580.009155 
z"/>
<path fill="#FDFDFD" opacity="1.000000" stroke="none" 
	d="
M625.963135,440.009430 
	C626.054016,450.268005 626.144958,460.526550 626.042297,471.521179 
	C623.029114,482.964813 621.196289,494.057129 617.200073,504.305878 
	C606.346069,532.141968 586.955444,552.776672 560.442810,566.359924 
	C551.360535,571.013123 541.457886,574.065308 531.501221,577.821716 
	C515.519714,580.884521 499.864899,581.561035 483.808533,579.550537 
	C454.520966,574.404602 429.891937,561.414368 410.024261,539.616699 
	C394.412109,522.487854 383.686005,502.569458 380.134277,479.770721 
	C373.629944,438.018646 382.965637,400.421478 413.488403,369.734924 
	C436.762695,346.335815 465.055542,333.786591 498.159973,332.835999 
	C529.429504,331.938110 557.458801,340.992523 581.840210,360.897003 
	C596.520142,372.881409 608.050293,387.393616 615.116455,404.887207 
	C619.689270,416.207977 622.411621,428.276154 625.963135,440.009430 
z"/>
<path fill="#E23A22" opacity="1.000000" stroke="none" 
	d="
M626.359497,439.918518 
	C622.411621,428.276154 619.689270,416.207977 615.116455,404.887207 
	C608.050293,387.393616 596.520142,372.881409 581.840210,360.897003 
	C557.458801,340.992523 529.429504,331.938110 498.159973,332.835999 
	C465.055542,333.786591 436.762695,346.335815 413.488403,369.734924 
	C382.965637,400.421478 373.629944,438.018646 380.134277,479.770721 
	C383.686005,502.569458 394.412109,522.487854 410.024261,539.616699 
	C429.891937,561.414368 454.520966,574.404602 483.679260,579.846558 
	C483.233490,581.247314 482.619293,582.122437 482.005066,582.997559 
	C472.789490,581.975525 464.075531,579.292542 455.195740,576.551208 
	C437.306824,571.028687 423.928619,559.302246 410.897339,547.121338 
	C399.250641,536.234558 389.721344,523.425964 383.460907,508.553528 
	C381.041687,502.806274 378.813385,496.916565 377.223145,490.900146 
	C375.670074,485.024170 374.514923,478.939484 374.105194,472.884155 
	C372.841827,454.213165 374.561737,435.636475 379.569305,417.691315 
	C381.953430,409.147583 387.519714,401.525116 391.333862,393.340576 
	C401.208038,372.152069 418.250214,357.876984 437.441345,345.901825 
	C448.283783,339.136230 459.973938,333.642029 472.865082,332.149139 
	C485.829865,330.647736 498.924286,328.942688 511.908844,329.293304 
	C525.930603,329.671936 539.600830,333.166351 552.680115,338.934235 
	C568.725769,346.010223 583.379578,355.103149 595.757324,367.429504 
	C610.303711,381.915497 620.984680,398.828583 624.909790,419.391785 
	C625.986511,425.032562 627.062988,430.677155 627.913574,436.353882 
	C628.074768,437.429840 627.169250,438.665619 626.359497,439.918518 
z"/>
<path fill="#DC3B22" opacity="1.000000" stroke="none" 
	d="
M531.930054,577.848938 
	C541.457886,574.065308 551.360535,571.013123 560.442810,566.359924 
	C586.955444,552.776672 606.346069,532.141968 617.200073,504.305878 
	C621.196289,494.057129 623.029114,482.964813 626.055420,471.970123 
	C627.163330,473.423584 629.118958,475.395142 628.796326,476.867645 
	C626.553162,487.107086 624.721130,497.573975 621.066528,507.334900 
	C615.517578,522.155212 606.030334,534.770752 595.780579,546.790649 
	C583.686523,560.973389 568.781433,571.118164 551.473328,577.590759 
	C546.657227,579.391785 541.116943,579.256226 535.119324,579.977295 
	C533.529846,579.246582 532.729980,578.547791 531.930054,577.848938 
z"/>
<path fill="#D34029" opacity="1.000000" stroke="none" 
	d="
M531.501221,577.821716 
	C532.729980,578.547791 533.529846,579.246582 534.663086,579.981262 
	C534.537964,580.634766 534.140320,581.732605 533.612183,581.799438 
	C522.012207,583.268066 510.425598,585.052246 498.773621,585.807434 
	C493.381866,586.156860 487.857269,584.457214 482.199005,583.342041 
	C482.619293,582.122437 483.233490,581.247314 483.976929,580.076050 
	C499.864899,581.561035 515.519714,580.884521 531.501221,577.821716 
z"/>
</svg>